# xmcd
#
# Track frame offsets:
#	150
#	18487
#	33605
#	49963
#	66803
#	86088
#	114025
#	133427
#	150016
#	168053
#
# Disc length: 2444 seconds
#
# Revision: 15
# Processed by: cddbd v1.5.2PL0 Copyright (c) Steve Scherf et al.
# Submitted via: Jack! The Knife 20 Magnifico
#
DISCID=78098a0a
DTITLE=Whitesnake - Slide It In
DYEAR=1984
DGENRE=Hard Rock
TTITLE0=Gambler
TTITLE1=Slide It In
TTITLE2=Standing In The Shadow
TTITLE3=Give Me More Time
TTITLE4=Love Ain't No Stranger
TTITLE5=Slow An' Easy
TTITLE6=Spit It Out
TTITLE7=All Or Nothing
TTITLE8=Hungry For Love
TTITLE9=Guilty Of Love
EXTD=Martin Birch
EXTT0=Coverdale, Galley
EXTT1=David Coverdale
EXTT2=David Coverdale
EXTT3=Coverdale, Galley
EXTT4=Coverdale, Galley
EXTT5=Coverdale, Moody
EXTT6=Coverdale, Galley
EXTT7=Coverdale, Galley
EXTT8=David Coverdale
EXTT9=David Coverdale
PLAYORDER=
